<?xml version="1.0" encoding="utf-8"?>
<!-- Generator: Adobe Illustrator 23.0.1, SVG Export Plug-In . SVG Version: 6.00 Build 0)  -->
<svg version="1.1" id="Layer_4" xmlns="http://www.w3.org/2000/svg" xmlns:xlink="http://www.w3.org/1999/xlink" x="0px" y="0px"
	 viewBox="0 0 1500 600" style="enable-background:new 0 0 1500 600;" xml:space="preserve">
<style type="text/css">
	.st0{fill:#2D3D4A;}
	.st1{fill:url(#SVGID_1_);}
</style>
<g>
	<g>
		<g>
			<path class="st0" d="M725.56,237.74v124.51H701.9l-62.08-75.6v75.6h-28.46V237.74h23.84l61.9,75.6v-75.6H725.56z"/>
			<path class="st0" d="M862.17,339.13v23.12h-96.41V237.74h94.1v23.12H794.4v27.04h57.81v22.41H794.4v28.82H862.17z"/>
			<path class="st0" d="M972.99,362.26l-30.06-43.22l-29.53,43.22h-33.09l46.07-63.33l-43.76-61.19h32.73l28.64,40.38l28.1-40.38
				h31.13l-43.4,60.12l46.43,64.39H972.99z"/>
			<path class="st0" d="M1043.34,349.63c-9.9-9.84-14.85-23.89-14.85-42.16v-69.73h28.82v68.66c0,22.3,9.25,33.44,27.75,33.44
				c9.01,0,15.89-2.7,20.63-8.09c4.74-5.4,7.12-13.84,7.12-25.35v-68.66h28.46v69.73c0,18.26-4.95,32.32-14.85,42.16
				c-9.9,9.84-23.75,14.76-41.53,14.76C1067.08,364.39,1053.24,359.47,1043.34,349.63z"/>
			<path class="st0" d="M1192.22,360.39c-9.19-2.67-16.57-6.14-22.15-10.41l9.78-21.7c5.34,3.91,11.68,7.06,19.03,9.43
				c7.35,2.37,14.7,3.56,22.06,3.56c8.18,0,14.23-1.21,18.14-3.65c3.91-2.43,5.87-5.66,5.87-9.7c0-2.96-1.16-5.42-3.47-7.38
				c-2.31-1.96-5.28-3.53-8.89-4.71c-3.62-1.18-8.51-2.49-14.67-3.91c-9.49-2.25-17.25-4.5-23.3-6.76
				c-6.05-2.25-11.24-5.87-15.56-10.85c-4.33-4.98-6.49-11.62-6.49-19.92c0-7.23,1.96-13.79,5.87-19.66
				c3.91-5.87,9.81-10.52,17.7-13.96c7.88-3.44,17.52-5.16,28.91-5.16c7.94,0,15.71,0.95,23.3,2.85c7.59,1.9,14.23,4.63,19.92,8.18
				l-8.89,21.88c-11.5-6.52-23.01-9.78-34.51-9.78c-8.07,0-14.02,1.31-17.88,3.91c-3.85,2.61-5.78,6.05-5.78,10.32
				c0,4.27,2.22,7.44,6.67,9.52c4.45,2.08,11.23,4.12,20.37,6.14c9.49,2.25,17.25,4.51,23.3,6.76c6.05,2.25,11.23,5.81,15.56,10.67
				c4.33,4.86,6.49,11.45,6.49,19.75c0,7.12-1.99,13.61-5.96,19.48c-3.97,5.87-9.93,10.53-17.88,13.96
				c-7.95,3.44-17.61,5.16-28.99,5.16C1210.93,364.39,1201.41,363.06,1192.22,360.39z"/>
		</g>
	</g>
	<g>
		<linearGradient id="SVGID_1_" gradientUnits="userSpaceOnUse" x1="226.4003" y1="300" x2="484.8852" y2="300">
			<stop  offset="0" style="stop-color:#0087FC"/>
			<stop  offset="1" style="stop-color:#00C5E2"/>
		</linearGradient>
		<path class="st1" d="M484.89,401.7V198.45c0-5.33-3.77-9.66-8.42-9.66h-112.4c-4.65,0-8.42,4.32-8.42,9.66v203.28
			c0,5.33-3.77,9.66-8.42,9.66h-112.4c-4.65,0-8.42-4.32-8.42-9.66V198.29c0-8.16,8.29-12.64,13.78-7.45l230.93,218.31
			C476.6,414.34,484.89,409.86,484.89,401.7z"/>
	</g>
</g>
</svg>
